<svg width="30" height="23" viewBox="0 0 30 23" fill="none" xmlns="http://www.w3.org/2000/svg">
<path d="M0 2.40725C0 1.94884 0.197544 1.5092 0.549175 1.18505C0.900805 0.860906 1.37772 0.678802 1.875 0.678802H28.125C28.6223 0.678802 29.0992 0.860906 29.4508 1.18505C29.8025 1.5092 30 1.94884 30 2.40725C30 2.86566 29.8025 3.3053 29.4508 3.62945C29.0992 3.95359 28.6223 4.1357 28.125 4.1357H1.875C1.37772 4.1357 0.900805 3.95359 0.549175 3.62945C0.197544 3.3053 0 2.86566 0 2.40725ZM0 11.6256C0 11.1672 0.197544 10.7276 0.549175 10.4034C0.900805 10.0793 1.37772 9.89718 1.875 9.89718H28.125C28.6223 9.89718 29.0992 10.0793 29.4508 10.4034C29.8025 10.7276 30 11.1672 30 11.6256C30 12.084 29.8025 12.5237 29.4508 12.8478C29.0992 13.172 28.6223 13.3541 28.125 13.3541H1.875C1.37772 13.3541 0.900805 13.172 0.549175 12.8478C0.197544 12.5237 0 12.084 0 11.6256ZM0 20.844C0 20.3856 0.197544 19.946 0.549175 19.6218C0.900805 19.2977 1.37772 19.1156 1.875 19.1156H28.125C28.6223 19.1156 29.0992 19.2977 29.4508 19.6218C29.8025 19.946 30 20.3856 30 20.844C30 21.3024 29.8025 21.7421 29.4508 22.0662C29.0992 22.3904 28.6223 22.5725 28.125 22.5725H1.875C1.37772 22.5725 0.900805 22.3904 0.549175 22.0662C0.197544 21.7421 0 21.3024 0 20.844Z" fill="white"/>
</svg>
